<?xml version="1.0" standalone="no"?>
<!DOCTYPE svg PUBLIC "-//W3C//DTD SVG 20010904//EN"
 "http://www.w3.org/TR/2001/REC-SVG-20010904/DTD/svg10.dtd">
<svg version="1.0" xmlns="http://www.w3.org/2000/svg"
 width="600.000000pt" height="600.000000pt" viewBox="0 0 600.000000 600.000000"
 preserveAspectRatio="xMidYMid meet">
<g transform="translate(0.000000,600.000000) scale(0.100000,-0.100000)"
fill="#000000" stroke="none">
<path d="M3523 4455 c0 -8 4 -12 9 -9 5 3 6 10 3 15 -9 13 -12 11 -12 -6z"/>
<path d="M3402 4263 l-232 -207 0 -740 c0 -510 -3 -753 -11 -781 -18 -65 -69
-153 -112 -191 -22 -20 -65 -48 -96 -62 -47 -23 -70 -27 -146 -27 -76 0 -99 4
-147 27 -117 55 -194 158 -219 298 l-12 70 -154 0 -154 0 6 -57 c29 -245 156
-477 342 -622 97 -76 164 -112 279 -150 230 -77 456 -58 679 57 73 38 108 66
190 147 109 109 167 199 212 327 52 149 53 170 53 1181 l0 937 -122 0 -123 -1
-233 -206z m262 175 c-6 -10 -4 -10 8 0 22 17 174 13 171 -5 -2 -7 0 -13 5
-13 4 0 7 -347 7 -771 1 -424 -3 -762 -7 -752 -4 10 -4 -2 0 -27 6 -43 6 -212
-1 -315 -6 -74 -28 -165 -40 -158 -6 3 -7 1 -4 -5 10 -14 -3 -43 -15 -36 -6 4
-5 -3 1 -15 11 -21 5 -27 -22 -22 -5 1 -4 -6 1 -15 10 -19 -44 -131 -82 -170
-51 -52 -86 -94 -79 -94 5 0 -7 -10 -24 -21 -18 -12 -33 -25 -33 -30 0 -5 -6
-8 -12 -7 -7 2 -12 -2 -11 -9 2 -8 -4 -10 -15 -6 -9 3 -14 2 -9 -2 10 -12 -75
-66 -93 -59 -8 3 -11 2 -7 -2 4 -4 -12 -17 -35 -28 -57 -26 -138 -54 -133 -46
3 4 -14 1 -38 -8 -31 -11 -79 -15 -182 -14 -178 2 -185 2 -185 13 0 6 -6 9
-12 7 -18 -3 -108 25 -108 34 0 4 -9 8 -20 8 -11 0 -20 5 -20 11 0 6 -6 9 -14
6 -8 -3 -20 2 -28 11 -12 15 -11 16 4 4 12 -10 18 -10 24 -1 4 7 3 9 -4 5 -6
-3 -13 -2 -17 4 -4 7 -13 6 -27 -1 -11 -6 -18 -7 -15 -2 3 5 -10 17 -29 28
-19 10 -34 22 -34 27 0 5 -5 6 -12 2 -7 -4 -8 -3 -4 4 4 7 13 12 21 12 8 0 16
4 19 9 7 10 -9 8 -38 -4 -13 -6 -23 -3 -32 10 -8 10 -14 15 -14 9 0 -5 -5 -1
-11 8 -5 10 -17 18 -26 18 -9 0 -13 3 -10 7 4 3 -8 17 -26 30 -17 13 -32 27
-32 31 0 4 -22 34 -48 68 -61 77 -90 132 -84 155 3 11 2 17 -3 14 -4 -3 -18
18 -30 47 -17 40 -19 52 -9 59 11 6 10 9 -2 14 -9 3 -16 11 -17 18 0 7 -5 28
-10 47 -4 19 -8 49 -8 65 l1 30 124 0 125 0 8 -35 c19 -80 41 -140 50 -140 6
0 8 -9 5 -20 -3 -11 -2 -18 3 -15 7 5 24 -23 22 -36 -1 -3 10 -12 24 -20 28
-15 57 -62 46 -74 -4 -4 3 -2 16 4 14 8 22 8 22 1 0 -5 7 -10 15 -10 8 0 15
-5 15 -11 0 -5 5 -7 10 -4 6 3 10 1 10 -5 0 -6 4 -8 10 -5 5 3 18 2 27 -3 30
-16 170 -23 200 -10 16 6 35 12 44 13 9 1 29 11 45 22 16 11 37 19 47 18 9 -2
15 0 12 5 -7 11 32 43 44 36 5 -4 13 -1 17 5 4 8 3 9 -4 5 -20 -12 -13 5 11
26 12 11 15 16 7 12 -9 -4 -7 2 5 13 11 11 24 18 29 15 5 -3 6 0 2 7 -4 6 2
27 13 47 11 19 25 63 31 97 6 38 10 337 10 772 -1 664 1 711 17 733 10 13 25
24 33 25 27 4 39 17 33 34 -5 12 -2 15 9 11 10 -4 15 -1 14 9 0 9 5 18 12 20
8 3 10 -1 5 -13 -4 -12 -3 -15 6 -10 7 5 11 16 8 26 -3 14 0 17 14 15 12 -2
16 1 13 10 -8 19 57 65 84 60 13 -2 20 0 17 6 -4 5 -12 6 -18 3 -9 -5 -9 -3 0
6 10 11 15 11 27 1 10 -8 21 -9 32 -3 15 8 15 9 0 15 -10 4 -15 3 -11 -3 10
-16 -11 -12 -25 5 -7 8 -10 15 -6 15 3 0 8 0 11 0 10 0 42 35 38 42 -2 4 5 9
14 12 10 3 41 28 68 55 46 46 87 68 69 39z m-384 -332 c0 -11 -19 -15 -25 -6
-3 5 1 10 9 10 9 0 16 -2 16 -4z"/>
<path d="M3589 4388 c-5 -18 -6 -38 -1 -34 7 8 12 36 6 36 -2 0 -4 -1 -5 -2z"/>
<path d="M3536 4328 c3 -5 10 -6 15 -3 13 9 11 12 -6 12 -8 0 -12 -4 -9 -9z"/>
<path d="M3422 4210 c0 -14 2 -19 5 -12 2 6 2 18 0 25 -3 6 -5 1 -5 -13z"/>
<path d="M3390 4209 c0 -5 5 -7 10 -4 6 3 10 8 10 11 0 2 -4 4 -10 4 -5 0 -10
-5 -10 -11z"/>
<path d="M3493 3942 c-17 -2 -36 -9 -42 -16 -8 -9 -12 -220 -15 -692 -1 -374
-6 -692 -10 -709 -4 -16 -14 -49 -23 -73 -14 -38 -17 -41 -30 -25 -11 16 -12
14 -1 -10 8 -20 9 -31 1 -35 -6 -4 -13 -16 -17 -27 -9 -29 -62 -86 -71 -77 -4
4 -6 0 -3 -8 5 -17 -21 -50 -40 -50 -7 0 -10 5 -6 12 4 7 3 8 -5 4 -9 -6 -9
-11 -1 -21 7 -9 6 -16 -7 -26 -16 -13 -17 -12 -4 4 8 10 9 17 3 17 -6 0 -13
-8 -16 -17 -7 -22 -63 -55 -71 -42 -4 5 -12 9 -18 9 -9 0 -9 -2 0 -8 20 -13
-2 -33 -39 -35 -20 -1 -34 -5 -32 -8 2 -4 -32 -12 -76 -19 -44 -7 -82 -16 -85
-20 -7 -12 124 -2 178 14 131 38 268 158 332 290 66 136 65 119 65 868 l0 678
65 0 66 0 -3 -687 c-4 -765 -1 -732 -74 -882 -25 -50 -57 -95 -103 -140 -115
-116 -230 -160 -426 -162 -100 -1 -107 -2 -80 -14 17 -7 47 -12 68 -10 20 2
37 1 37 -3 0 -4 13 -7 29 -7 16 -1 28 3 25 7 -3 4 15 7 38 6 41 -1 112 19 171
49 15 8 27 11 27 7 0 -3 8 2 18 13 9 10 15 14 12 8 -3 -6 2 -3 12 7 9 10 19
18 22 18 3 0 15 9 26 20 12 12 25 18 30 15 5 -3 12 0 16 6 4 8 3 9 -4 5 -21
-13 -13 4 20 39 17 19 38 35 47 36 11 0 12 2 3 6 -10 4 -9 9 5 20 10 8 12 11
4 8 -9 -5 -8 1 4 19 9 14 22 23 28 19 6 -4 7 -1 2 6 -4 7 -3 23 3 34 23 49 50
135 57 187 13 92 9 1358 -4 1374 -13 15 -58 23 -108 18z"/>
<path d="M3775 2389 c-4 -6 -5 -12 -2 -15 2 -3 7 2 10 11 7 17 1 20 -8 4z"/>
<path d="M2517 2329 c7 -7 15 -10 18 -7 3 3 -2 9 -12 12 -14 6 -15 5 -6 -5z"/>
<path d="M2992 2264 c-7 -8 -9 -14 -5 -15 4 0 18 -2 30 -3 14 -2 19 2 16 11
-3 7 -9 11 -13 8 -5 -3 -10 -1 -12 4 -1 5 -9 3 -16 -5z"/>
<path d="M2597 2249 c7 -7 15 -10 18 -7 3 3 -2 9 -12 12 -14 6 -15 5 -6 -5z"/>
<path d="M2293 2210 c19 -25 20 -26 14 -8 -3 9 -1 19 6 21 7 3 2 4 -10 4 -18
-1 -20 -4 -10 -17z"/>
<path d="M3283 2173 c4 -3 1 -13 -6 -22 -11 -14 -10 -14 5 -2 16 12 16 31 1
31 -4 0 -3 -3 0 -7z"/>
<path d="M2356 2141 c-4 -5 -2 -12 3 -15 5 -4 12 -2 15 3 4 5 2 12 -3 15 -5 4
-12 2 -15 -3z"/>
<path d="M3235 2140 c-3 -6 1 -7 9 -4 18 7 21 14 7 14 -6 0 -13 -4 -16 -10z"/>
<path d="M2450 2046 c0 -2 8 -10 18 -17 15 -13 16 -12 3 4 -13 16 -21 21 -21
13z"/>
<path d="M2910 1824 c-16 -10 -18 -13 -5 -8 11 4 28 7 37 8 9 0 14 4 12 8 -7
11 -15 10 -44 -8z"/>
<path d="M3446 4358 c3 -5 10 -6 15 -3 13 9 11 12 -6 12 -8 0 -12 -4 -9 -9z"/>
<path d="M3131 4058 c5 -10 11 -18 12 -18 2 0 3 8 3 18 0 10 -6 19 -13 19 -8
0 -9 -6 -2 -19z"/>
<path d="M3055 2469 c-3 -4 2 -6 10 -5 21 3 28 13 10 13 -9 0 -18 -4 -20 -8z"/>
<path d="M2603 2393 c4 -3 1 -13 -6 -22 -11 -14 -10 -14 5 -2 16 12 16 31 1
31 -4 0 -3 -3 0 -7z"/>
<path d="M2171 2224 c0 -11 3 -14 6 -6 3 7 2 16 -1 19 -3 4 -6 -2 -5 -13z"/>
<path d="M3777 2169 c7 -7 15 -10 18 -7 3 3 -2 9 -12 12 -14 6 -15 5 -6 -5z"/>
<path d="M3665 2021 c-3 -5 -2 -12 3 -15 5 -3 9 1 9 9 0 17 -3 19 -12 6z"/>
<path d="M3590 1941 c0 -7 -5 -9 -12 -5 -7 5 -8 3 -3 -5 5 -9 10 -10 18 -2 6
6 8 14 4 18 -4 3 -7 1 -7 -6z"/>
<path d="M3330 1776 c0 -2 7 -7 16 -10 8 -3 12 -2 9 4 -6 10 -25 14 -25 6z"/>
</g>
</svg>
